<?xml version="1.0" encoding="utf-8" standalone="no"?>
<!DOCTYPE svg PUBLIC "-//W3C//DTD SVG 1.1//EN"
  "http://www.w3.org/Graphics/SVG/1.1/DTD/svg11.dtd">
<svg height="288pt" version="1.1" viewBox="0 0 576 288" width="576pt" xmlns="http://www.w3.org/2000/svg" xmlns:xlink="http://www.w3.org/1999/xlink">
 <metadata>
  <rdf:RDF xmlns:cc="http://creativecommons.org/ns#" xmlns:dc="http://purl.org/dc/elements/1.1/" xmlns:rdf="http://www.w3.org/1999/02/22-rdf-syntax-ns#">
   <cc:Work>
    <dc:type rdf:resource="http://purl.org/dc/dcmitype/StillImage"/>
    <dc:date>2022-04-29T02:15:30.625697</dc:date>
    <dc:format>image/svg+xml</dc:format>
    <dc:creator>
     <cc:Agent>
      <dc:title>Matplotlib v3.4.3, https://matplotlib.org/</dc:title>
     </cc:Agent>
    </dc:creator>
   </cc:Work>
  </rdf:RDF>
 </metadata>
 <defs>
  <style type="text/css">*{stroke-linecap:butt;stroke-linejoin:round;}</style>
 </defs>
 <g id="figure_1">
  <g id="patch_1">
   <path d="M 0 288 
L 576 288 
L 576 0 
L 0 0 
z
" style="fill:none;"/>
  </g>
  <g id="axes_1">
   <g id="patch_2">
    <path d="M 72 252 
L 518.4 252 
L 518.4 34.56 
L 72 34.56 
z
" style="fill:#ffffff;"/>
   </g>
   <g id="PathCollection_1">
    <defs>
     <path d="M 0 3 
C 0.795609 3 1.55874 2.683901 2.12132 2.12132 
C 2.683901 1.55874 3 0.795609 3 0 
C 3 -0.795609 2.683901 -1.55874 2.12132 -2.12132 
C 1.55874 -2.683901 0.795609 -3 0 -3 
C -0.795609 -3 -1.55874 -2.683901 -2.12132 -2.12132 
C -2.683901 -1.55874 -3 -0.795609 -3 0 
C -3 0.795609 -2.683901 1.55874 -2.12132 2.12132 
C -1.55874 2.683901 -0.795609 3 0 3 
z
" id="mdb6f20ae19" style="stroke:#008000;"/>
    </defs>
    <g clip-path="url(#p111adc0f27)">
     <use style="fill:#008000;stroke:#008000;" x="92.290909" xlink:href="#mdb6f20ae19" y="44.443636"/>
    </g>
   </g>
   <g id="matplotlib.axis_1">
    <g id="xtick_1">
     <g id="line2d_1">
      <path clip-path="url(#p111adc0f27)" d="M 92.290909 252 
L 92.290909 34.56 
" style="fill:none;stroke:#b0b0b0;stroke-linecap:square;stroke-width:0.8;"/>
     </g>
     <g id="line2d_2">
      <defs>
       <path d="M 0 0 
L 0 3.5 
" id="m184c6de9b9" style="stroke:#000000;stroke-width:0.8;"/>
      </defs>
      <g>
       <use style="stroke:#000000;stroke-width:0.8;" x="92.290909" xlink:href="#m184c6de9b9" y="252"/>
      </g>
     </g>
     <g id="text_1">
      <!-- 0 -->
      <g transform="translate(89.537003 266.598437)scale(0.1 -0.1)">
       <defs>
        <path d="M 3225 2291 
Q 3225 1738 3145 1300 
Q 3066 863 2889 559 
Q 2713 256 2434 96 
Q 2156 -63 1759 -63 
Q 1391 -63 1117 96 
Q 844 256 664 559 
Q 484 863 395 1300 
Q 306 1738 306 2291 
Q 306 2844 386 3281 
Q 466 3719 639 4020 
Q 813 4322 1089 4481 
Q 1366 4641 1759 4641 
Q 2131 4641 2406 4483 
Q 2681 4325 2862 4023 
Q 3044 3722 3134 3284 
Q 3225 2847 3225 2291 
z
M 884 2291 
Q 884 1822 931 1472 
Q 978 1122 1081 889 
Q 1184 656 1351 539 
Q 1519 422 1759 422 
Q 2000 422 2169 537 
Q 2338 653 2445 884 
Q 2553 1116 2601 1467 
Q 2650 1819 2650 2291 
Q 2650 2759 2601 3109 
Q 2553 3459 2445 3690 
Q 2338 3922 2169 4037 
Q 2000 4153 1759 4153 
Q 1519 4153 1351 4037 
Q 1184 3922 1081 3690 
Q 978 3459 931 3109 
Q 884 2759 884 2291 
z
" id="WenQuanYiMicroHei-30" transform="scale(0.015625)"/>
       </defs>
       <use xlink:href="#WenQuanYiMicroHei-30"/>
      </g>
     </g>
    </g>
    <g id="xtick_2">
     <g id="line2d_3">
      <path clip-path="url(#p111adc0f27)" d="M 143.043558 252 
L 143.043558 34.56 
" style="fill:none;stroke:#b0b0b0;stroke-linecap:square;stroke-width:0.8;"/>
     </g>
     <g id="line2d_4">
      <g>
       <use style="stroke:#000000;stroke-width:0.8;" x="143.043558" xlink:href="#m184c6de9b9" y="252"/>
      </g>
     </g>
     <g id="text_2">
      <!-- 250 -->
      <g transform="translate(134.781839 266.598437)scale(0.1 -0.1)">
       <defs>
        <path d="M 3150 0 
L 300 0 
L 300 488 
L 1394 1678 
Q 1628 1931 1812 2140 
Q 1997 2350 2126 2550 
Q 2256 2750 2325 2951 
Q 2394 3153 2394 3391 
Q 2394 3575 2341 3715 
Q 2288 3856 2189 3954 
Q 2091 4053 1956 4103 
Q 1822 4153 1656 4153 
Q 1359 4153 1120 4033 
Q 881 3913 666 3725 
L 347 4097 
Q 472 4209 615 4307 
Q 759 4406 925 4478 
Q 1091 4550 1275 4592 
Q 1459 4634 1663 4634 
Q 1963 4634 2205 4550 
Q 2447 4466 2615 4308 
Q 2784 4150 2876 3923 
Q 2969 3697 2969 3413 
Q 2969 3147 2886 2906 
Q 2803 2666 2658 2433 
Q 2513 2200 2311 1965 
Q 2109 1731 1875 1478 
L 997 544 
L 997 519 
L 3150 519 
L 3150 0 
z
" id="WenQuanYiMicroHei-32" transform="scale(0.015625)"/>
        <path d="M 1703 2803 
Q 2013 2803 2280 2717 
Q 2547 2631 2745 2462 
Q 2944 2294 3056 2044 
Q 3169 1794 3169 1466 
Q 3169 1109 3062 825 
Q 2956 541 2747 344 
Q 2538 147 2230 42 
Q 1922 -63 1522 -63 
Q 1363 -63 1208 -47 
Q 1053 -31 911 -1 
Q 769 28 641 75 
Q 513 122 409 184 
L 409 722 
Q 513 650 652 594 
Q 791 538 944 500 
Q 1097 463 1251 442 
Q 1406 422 1538 422 
Q 1784 422 1978 480 
Q 2172 538 2306 659 
Q 2441 781 2512 965 
Q 2584 1150 2584 1403 
Q 2584 1850 2309 2086 
Q 2034 2322 1509 2322 
Q 1425 2322 1326 2314 
Q 1228 2306 1129 2293 
Q 1031 2281 942 2267 
Q 853 2253 788 2241 
L 506 2419 
L 678 4569 
L 2834 4569 
L 2834 4050 
L 1172 4050 
L 1050 2741 
Q 1150 2759 1314 2781 
Q 1478 2803 1703 2803 
z
" id="WenQuanYiMicroHei-35" transform="scale(0.015625)"/>
       </defs>
       <use xlink:href="#WenQuanYiMicroHei-32"/>
       <use x="55.078125" xlink:href="#WenQuanYiMicroHei-35"/>
       <use x="110.15625" xlink:href="#WenQuanYiMicroHei-30"/>
      </g>
     </g>
    </g>
    <g id="xtick_3">
     <g id="line2d_5">
      <path clip-path="url(#p111adc0f27)" d="M 193.796207 252 
L 193.796207 34.56 
" style="fill:none;stroke:#b0b0b0;stroke-linecap:square;stroke-width:0.8;"/>
     </g>
     <g id="line2d_6">
      <g>
       <use style="stroke:#000000;stroke-width:0.8;" x="193.796207" xlink:href="#m184c6de9b9" y="252"/>
      </g>
     </g>
     <g id="text_3">
      <!-- 500 -->
      <g transform="translate(185.534488 266.598437)scale(0.1 -0.1)">
       <use xlink:href="#WenQuanYiMicroHei-35"/>
       <use x="55.078125" xlink:href="#WenQuanYiMicroHei-30"/>
       <use x="110.15625" xlink:href="#WenQuanYiMicroHei-30"/>
      </g>
     </g>
    </g>
    <g id="xtick_4">
     <g id="line2d_7">
      <path clip-path="url(#p111adc0f27)" d="M 244.548856 252 
L 244.548856 34.56 
" style="fill:none;stroke:#b0b0b0;stroke-linecap:square;stroke-width:0.8;"/>
     </g>
     <g id="line2d_8">
      <g>
       <use style="stroke:#000000;stroke-width:0.8;" x="244.548856" xlink:href="#m184c6de9b9" y="252"/>
      </g>
     </g>
     <g id="text_4">
      <!-- 750 -->
      <g transform="translate(236.287137 266.598437)scale(0.1 -0.1)">
       <defs>
        <path d="M 878 0 
L 2638 4050 
L 281 4050 
L 281 4569 
L 3219 4569 
L 3219 4116 
L 1484 0 
L 878 0 
z
" id="WenQuanYiMicroHei-37" transform="scale(0.015625)"/>
       </defs>
       <use xlink:href="#WenQuanYiMicroHei-37"/>
       <use x="55.078125" xlink:href="#WenQuanYiMicroHei-35"/>
       <use x="110.15625" xlink:href="#WenQuanYiMicroHei-30"/>
      </g>
     </g>
    </g>
    <g id="xtick_5">
     <g id="line2d_9">
      <path clip-path="url(#p111adc0f27)" d="M 295.301505 252 
L 295.301505 34.56 
" style="fill:none;stroke:#b0b0b0;stroke-linecap:square;stroke-width:0.8;"/>
     </g>
     <g id="line2d_10">
      <g>
       <use style="stroke:#000000;stroke-width:0.8;" x="295.301505" xlink:href="#m184c6de9b9" y="252"/>
      </g>
     </g>
     <g id="text_5">
      <!-- 1000 -->
      <g transform="translate(284.28588 266.598437)scale(0.1 -0.1)">
       <defs>
        <path d="M 2222 0 
L 1672 0 
L 1672 2853 
Q 1672 2988 1673 3141 
Q 1675 3294 1679 3445 
Q 1684 3597 1689 3736 
Q 1694 3875 1697 3981 
Q 1644 3925 1603 3884 
Q 1563 3844 1520 3806 
Q 1478 3769 1431 3726 
Q 1384 3684 1319 3628 
L 856 3250 
L 556 3634 
L 1753 4569 
L 2222 4569 
L 2222 0 
z
" id="WenQuanYiMicroHei-31" transform="scale(0.015625)"/>
       </defs>
       <use xlink:href="#WenQuanYiMicroHei-31"/>
       <use x="55.078125" xlink:href="#WenQuanYiMicroHei-30"/>
       <use x="110.15625" xlink:href="#WenQuanYiMicroHei-30"/>
       <use x="165.234375" xlink:href="#WenQuanYiMicroHei-30"/>
      </g>
     </g>
    </g>
    <g id="xtick_6">
     <g id="line2d_11">
      <path clip-path="url(#p111adc0f27)" d="M 346.054154 252 
L 346.054154 34.56 
" style="fill:none;stroke:#b0b0b0;stroke-linecap:square;stroke-width:0.8;"/>
     </g>
     <g id="line2d_12">
      <g>
       <use style="stroke:#000000;stroke-width:0.8;" x="346.054154" xlink:href="#m184c6de9b9" y="252"/>
      </g>
     </g>
     <g id="text_6">
      <!-- 1250 -->
      <g transform="translate(335.038529 266.598437)scale(0.1 -0.1)">
       <use xlink:href="#WenQuanYiMicroHei-31"/>
       <use x="55.078125" xlink:href="#WenQuanYiMicroHei-32"/>
       <use x="110.15625" xlink:href="#WenQuanYiMicroHei-35"/>
       <use x="165.234375" xlink:href="#WenQuanYiMicroHei-30"/>
      </g>
     </g>
    </g>
    <g id="xtick_7">
     <g id="line2d_13">
      <path clip-path="url(#p111adc0f27)" d="M 396.806803 252 
L 396.806803 34.56 
" style="fill:none;stroke:#b0b0b0;stroke-linecap:square;stroke-width:0.8;"/>
     </g>
     <g id="line2d_14">
      <g>
       <use style="stroke:#000000;stroke-width:0.8;" x="396.806803" xlink:href="#m184c6de9b9" y="252"/>
      </g>
     </g>
     <g id="text_7">
      <!-- 1500 -->
      <g transform="translate(385.791178 266.598437)scale(0.1 -0.1)">
       <use xlink:href="#WenQuanYiMicroHei-31"/>
       <use x="55.078125" xlink:href="#WenQuanYiMicroHei-35"/>
       <use x="110.15625" xlink:href="#WenQuanYiMicroHei-30"/>
       <use x="165.234375" xlink:href="#WenQuanYiMicroHei-30"/>
      </g>
     </g>
    </g>
    <g id="xtick_8">
     <g id="line2d_15">
      <path clip-path="url(#p111adc0f27)" d="M 447.559452 252 
L 447.559452 34.56 
" style="fill:none;stroke:#b0b0b0;stroke-linecap:square;stroke-width:0.8;"/>
     </g>
     <g id="line2d_16">
      <g>
       <use style="stroke:#000000;stroke-width:0.8;" x="447.559452" xlink:href="#m184c6de9b9" y="252"/>
      </g>
     </g>
     <g id="text_8">
      <!-- 1750 -->
      <g transform="translate(436.543827 266.598437)scale(0.1 -0.1)">
       <use xlink:href="#WenQuanYiMicroHei-31"/>
       <use x="55.078125" xlink:href="#WenQuanYiMicroHei-37"/>
       <use x="110.15625" xlink:href="#WenQuanYiMicroHei-35"/>
       <use x="165.234375" xlink:href="#WenQuanYiMicroHei-30"/>
      </g>
     </g>
    </g>
    <g id="xtick_9">
     <g id="line2d_17">
      <path clip-path="url(#p111adc0f27)" d="M 498.312102 252 
L 498.312102 34.56 
" style="fill:none;stroke:#b0b0b0;stroke-linecap:square;stroke-width:0.8;"/>
     </g>
     <g id="line2d_18">
      <g>
       <use style="stroke:#000000;stroke-width:0.8;" x="498.312102" xlink:href="#m184c6de9b9" y="252"/>
      </g>
     </g>
     <g id="text_9">
      <!-- 2000 -->
      <g transform="translate(487.296477 266.598437)scale(0.1 -0.1)">
       <use xlink:href="#WenQuanYiMicroHei-32"/>
       <use x="55.078125" xlink:href="#WenQuanYiMicroHei-30"/>
       <use x="110.15625" xlink:href="#WenQuanYiMicroHei-30"/>
       <use x="165.234375" xlink:href="#WenQuanYiMicroHei-30"/>
      </g>
     </g>
    </g>
    <g id="text_10">
     <!-- 回合次数 -->
     <g transform="translate(275.2 280.6)scale(0.1 -0.1)">
      <defs>
       <path d="M 5725 4825 
L 5725 -575 
L 5225 -575 
L 5225 -125 
L 1200 -125 
L 1200 -575 
L 700 -575 
L 700 4825 
L 5725 4825 
z
M 1200 350 
L 5225 350 
L 5225 4350 
L 1200 4350 
L 1200 350 
z
M 2025 3575 
L 4375 3575 
L 4375 1125 
L 2025 1125 
L 2025 3575 
z
M 2525 1600 
L 3875 1600 
L 3875 3100 
L 2525 3100 
L 2525 1600 
z
" id="WenQuanYiMicroHei-56de" transform="scale(0.015625)"/>
       <path d="M 3150 5250 
L 3675 5100 
Q 3600 5000 3500 4900 
Q 4750 3900 6125 3350 
L 5825 2850 
Q 4500 3425 3200 4575 
Q 2025 3475 525 2800 
L 250 3250 
Q 2275 4200 3150 5250 
z
M 1300 3100 
L 5075 3100 
L 5075 2600 
L 1300 2600 
L 1300 3100 
z
M 5300 1925 
L 5300 -575 
L 4800 -575 
L 4800 -175 
L 1550 -175 
L 1550 -575 
L 1050 -575 
L 1050 1925 
L 5300 1925 
z
M 1550 300 
L 4800 300 
L 4800 1450 
L 1550 1450 
L 1550 300 
z
" id="WenQuanYiMicroHei-5408" transform="scale(0.015625)"/>
       <path d="M 900 4875 
Q 1500 4425 2000 3800 
L 1625 3350 
Q 1125 4025 550 4500 
L 900 4875 
z
M 1625 2375 
L 2075 2075 
Q 1625 800 850 -400 
L 350 -25 
Q 1150 1100 1625 2375 
z
M 3100 5225 
L 3575 5100 
Q 3475 4675 3325 4250 
L 5700 4250 
L 5700 3800 
Q 5425 3225 5050 2650 
L 4625 2875 
Q 4925 3325 5125 3775 
L 3175 3775 
Q 2850 3000 2425 2450 
L 2050 2850 
Q 2750 3850 3100 5225 
z
M 3675 3375 
L 4150 3300 
Q 4150 2800 4075 2375 
Q 4400 1450 4850 875 
Q 5300 300 6125 -150 
L 5675 -575 
Q 4425 225 3900 1550 
Q 3525 250 2050 -575 
L 1675 -175 
Q 2750 425 3187 1175 
Q 3625 1925 3675 3375 
z
" id="WenQuanYiMicroHei-6b21" transform="scale(0.015625)"/>
       <path d="M 4275 4125 
L 5950 4125 
L 5950 3650 
L 5675 3650 
Q 5525 1900 4975 1000 
Q 5425 400 6125 -100 
L 5750 -575 
Q 5175 -100 4675 550 
Q 4175 -125 3450 -600 
L 3100 -150 
Q 3850 300 4350 1025 
Q 4000 1625 3700 2375 
L 3500 1950 
L 3100 2250 
Q 3725 3575 4000 5175 
L 4500 5025 
Q 4400 4550 4275 4125 
z
M 5175 3650 
L 4150 3650 
Q 4125 3525 3975 3075 
Q 4275 2175 4650 1525 
Q 4975 2225 5125 3225 
L 5125 3250 
L 5175 3650 
z
M 450 4100 
L 1750 4100 
L 1750 5150 
L 2200 5150 
L 2200 4100 
L 3400 4100 
L 3400 3675 
L 2200 3675 
L 2200 2525 
L 1750 2525 
L 1750 3300 
Q 1325 2700 750 2325 
L 425 2725 
Q 1050 3050 1525 3675 
L 450 3675 
L 450 4100 
z
M 1050 5050 
Q 1250 4750 1375 4375 
L 975 4175 
Q 850 4550 675 4875 
L 1050 5050 
z
M 2900 5050 
L 3275 4875 
Q 3050 4450 2800 4225 
L 2475 4525 
Q 2725 4750 2900 5050 
z
M 2725 3450 
Q 3000 3150 3175 2825 
L 2800 2600 
Q 2650 2950 2375 3250 
L 2725 3450 
z
M 425 2000 
L 1400 2000 
Q 1500 2200 1575 2400 
L 2050 2350 
L 1900 2000 
L 3025 2000 
L 3025 1575 
Q 2725 925 2300 475 
Q 2725 225 3075 0 
L 2775 -450 
Q 2450 -175 1925 125 
Q 1400 -325 525 -600 
L 375 -175 
Q 1025 25 1500 350 
Q 1100 575 625 800 
Q 925 1200 1150 1575 
L 425 1575 
L 425 2000 
z
M 1675 1575 
Q 1500 1250 1300 1000 
L 1900 700 
Q 2275 1100 2500 1575 
L 1675 1575 
z
" id="WenQuanYiMicroHei-6570" transform="scale(0.015625)"/>
      </defs>
      <use xlink:href="#WenQuanYiMicroHei-56de"/>
      <use x="100" xlink:href="#WenQuanYiMicroHei-5408"/>
      <use x="200" xlink:href="#WenQuanYiMicroHei-6b21"/>
      <use x="300" xlink:href="#WenQuanYiMicroHei-6570"/>
     </g>
    </g>
   </g>
   <g id="matplotlib.axis_2">
    <g id="ytick_1">
     <g id="line2d_19">
      <path clip-path="url(#p111adc0f27)" d="M 72 223.190251 
L 518.4 223.190251 
" style="fill:none;stroke:#b0b0b0;stroke-linecap:square;stroke-width:0.8;"/>
     </g>
     <g id="line2d_20">
      <defs>
       <path d="M 0 0 
L -3.5 0 
" id="maabbaa915b" style="stroke:#000000;stroke-width:0.8;"/>
      </defs>
      <g>
       <use style="stroke:#000000;stroke-width:0.8;" x="72" xlink:href="#maabbaa915b" y="223.190251"/>
      </g>
     </g>
     <g id="text_11">
      <!-- 0.10 -->
      <g transform="translate(45.795312 226.98947)scale(0.1 -0.1)">
       <defs>
        <path d="M 459 347 
Q 459 466 490 548 
Q 522 631 575 682 
Q 628 734 700 757 
Q 772 781 856 781 
Q 938 781 1011 757 
Q 1084 734 1137 682 
Q 1191 631 1222 548 
Q 1253 466 1253 347 
Q 1253 231 1222 148 
Q 1191 66 1137 12 
Q 1084 -41 1011 -66 
Q 938 -91 856 -91 
Q 772 -91 700 -66 
Q 628 -41 575 12 
Q 522 66 490 148 
Q 459 231 459 347 
z
" id="WenQuanYiMicroHei-2e" transform="scale(0.015625)"/>
       </defs>
       <use xlink:href="#WenQuanYiMicroHei-30"/>
       <use x="55.078125" xlink:href="#WenQuanYiMicroHei-2e"/>
       <use x="81.884766" xlink:href="#WenQuanYiMicroHei-31"/>
       <use x="136.962891" xlink:href="#WenQuanYiMicroHei-30"/>
      </g>
     </g>
    </g>
    <g id="ytick_2">
     <g id="line2d_21">
      <path clip-path="url(#p111adc0f27)" d="M 72 181.132224 
L 518.4 181.132224 
" style="fill:none;stroke:#b0b0b0;stroke-linecap:square;stroke-width:0.8;"/>
     </g>
     <g id="line2d_22">
      <g>
       <use style="stroke:#000000;stroke-width:0.8;" x="72" xlink:href="#maabbaa915b" y="181.132224"/>
      </g>
     </g>
     <g id="text_12">
      <!-- 0.30 -->
      <g transform="translate(45.795312 184.931443)scale(0.1 -0.1)">
       <defs>
        <path d="M 3003 3500 
Q 3003 3272 2931 3084 
Q 2859 2897 2729 2759 
Q 2600 2622 2419 2533 
Q 2238 2444 2016 2406 
L 2016 2388 
Q 2569 2319 2856 2036 
Q 3144 1753 3144 1300 
Q 3144 1000 3042 750 
Q 2941 500 2734 319 
Q 2528 138 2212 37 
Q 1897 -63 1466 -63 
Q 1125 -63 823 -9 
Q 522 44 256 184 
L 256 716 
Q 528 572 845 494 
Q 1163 416 1453 416 
Q 1741 416 1950 478 
Q 2159 541 2295 656 
Q 2431 772 2495 940 
Q 2559 1109 2559 1319 
Q 2559 1531 2476 1682 
Q 2394 1834 2241 1932 
Q 2088 2031 1867 2078 
Q 1647 2125 1369 2125 
L 953 2125 
L 953 2597 
L 1369 2597 
Q 1622 2597 1819 2659 
Q 2016 2722 2148 2837 
Q 2281 2953 2350 3112 
Q 2419 3272 2419 3463 
Q 2419 3625 2362 3753 
Q 2306 3881 2203 3970 
Q 2100 4059 1956 4106 
Q 1813 4153 1638 4153 
Q 1303 4153 1048 4048 
Q 794 3944 563 3775 
L 275 4166 
Q 394 4263 539 4347 
Q 684 4431 856 4495 
Q 1028 4559 1223 4596 
Q 1419 4634 1638 4634 
Q 1975 4634 2229 4550 
Q 2484 4466 2656 4314 
Q 2828 4163 2915 3955 
Q 3003 3747 3003 3500 
z
" id="WenQuanYiMicroHei-33" transform="scale(0.015625)"/>
       </defs>
       <use xlink:href="#WenQuanYiMicroHei-30"/>
       <use x="55.078125" xlink:href="#WenQuanYiMicroHei-2e"/>
       <use x="81.884766" xlink:href="#WenQuanYiMicroHei-33"/>
       <use x="136.962891" xlink:href="#WenQuanYiMicroHei-30"/>
      </g>
     </g>
    </g>
    <g id="ytick_3">
     <g id="line2d_23">
      <path clip-path="url(#p111adc0f27)" d="M 72 139.074197 
L 518.4 139.074197 
" style="fill:none;stroke:#b0b0b0;stroke-linecap:square;stroke-width:0.8;"/>
     </g>
     <g id="line2d_24">
      <g>
       <use style="stroke:#000000;stroke-width:0.8;" x="72" xlink:href="#maabbaa915b" y="139.074197"/>
      </g>
     </g>
     <g id="text_13">
      <!-- 0.50 -->
      <g transform="translate(45.795312 142.873416)scale(0.1 -0.1)">
       <use xlink:href="#WenQuanYiMicroHei-30"/>
       <use x="55.078125" xlink:href="#WenQuanYiMicroHei-2e"/>
       <use x="81.884766" xlink:href="#WenQuanYiMicroHei-35"/>
       <use x="136.962891" xlink:href="#WenQuanYiMicroHei-30"/>
      </g>
     </g>
    </g>
    <g id="ytick_4">
     <g id="line2d_25">
      <path clip-path="url(#p111adc0f27)" d="M 72 97.01617 
L 518.4 97.01617 
" style="fill:none;stroke:#b0b0b0;stroke-linecap:square;stroke-width:0.8;"/>
     </g>
     <g id="line2d_26">
      <g>
       <use style="stroke:#000000;stroke-width:0.8;" x="72" xlink:href="#maabbaa915b" y="97.01617"/>
      </g>
     </g>
     <g id="text_14">
      <!-- 0.70 -->
      <g transform="translate(45.795312 100.815389)scale(0.1 -0.1)">
       <use xlink:href="#WenQuanYiMicroHei-30"/>
       <use x="55.078125" xlink:href="#WenQuanYiMicroHei-2e"/>
       <use x="81.884766" xlink:href="#WenQuanYiMicroHei-37"/>
       <use x="136.962891" xlink:href="#WenQuanYiMicroHei-30"/>
      </g>
     </g>
    </g>
    <g id="ytick_5">
     <g id="line2d_27">
      <path clip-path="url(#p111adc0f27)" d="M 72 44.443636 
L 518.4 44.443636 
" style="fill:none;stroke:#b0b0b0;stroke-linecap:square;stroke-width:0.8;"/>
     </g>
     <g id="line2d_28">
      <g>
       <use style="stroke:#000000;stroke-width:0.8;" x="72" xlink:href="#maabbaa915b" y="44.443636"/>
      </g>
     </g>
     <g id="text_15">
      <!-- 0.95 -->
      <g transform="translate(45.795312 48.242855)scale(0.1 -0.1)">
       <defs>
        <path d="M 3213 2619 
Q 3213 2291 3180 1964 
Q 3147 1638 3064 1341 
Q 2981 1044 2837 786 
Q 2694 528 2472 340 
Q 2250 153 1940 45 
Q 1631 -63 1216 -63 
Q 1156 -63 1084 -59 
Q 1013 -56 941 -48 
Q 869 -41 800 -31 
Q 731 -22 678 -6 
L 678 481 
Q 788 441 925 422 
Q 1063 403 1197 403 
Q 1619 403 1891 550 
Q 2163 697 2322 948 
Q 2481 1200 2548 1534 
Q 2616 1869 2631 2241 
L 2591 2241 
Q 2528 2128 2440 2031 
Q 2353 1934 2234 1862 
Q 2116 1791 1966 1750 
Q 1816 1709 1631 1709 
Q 1334 1709 1093 1801 
Q 853 1894 684 2072 
Q 516 2250 423 2508 
Q 331 2766 331 3097 
Q 331 3453 429 3739 
Q 528 4025 708 4223 
Q 888 4422 1145 4528 
Q 1403 4634 1722 4634 
Q 2038 4634 2309 4512 
Q 2581 4391 2781 4141 
Q 2981 3891 3097 3511 
Q 3213 3131 3213 2619 
z
M 1728 4153 
Q 1541 4153 1386 4090 
Q 1231 4028 1118 3897 
Q 1006 3766 945 3567 
Q 884 3369 884 3097 
Q 884 2878 936 2704 
Q 988 2531 1091 2409 
Q 1194 2288 1348 2222 
Q 1503 2156 1709 2156 
Q 1922 2156 2094 2229 
Q 2266 2303 2387 2420 
Q 2509 2538 2576 2688 
Q 2644 2838 2644 2988 
Q 2644 3197 2586 3405 
Q 2528 3613 2414 3780 
Q 2300 3947 2128 4050 
Q 1956 4153 1728 4153 
z
" id="WenQuanYiMicroHei-39" transform="scale(0.015625)"/>
       </defs>
       <use xlink:href="#WenQuanYiMicroHei-30"/>
       <use x="55.078125" xlink:href="#WenQuanYiMicroHei-2e"/>
       <use x="81.884766" xlink:href="#WenQuanYiMicroHei-39"/>
       <use x="136.962891" xlink:href="#WenQuanYiMicroHei-35"/>
      </g>
     </g>
    </g>
    <g id="ytick_6">
     <g id="line2d_29">
      <path clip-path="url(#p111adc0f27)" d="M 72 242.116364 
L 518.4 242.116364 
" style="fill:none;stroke:#b0b0b0;stroke-linecap:square;stroke-width:0.8;"/>
     </g>
     <g id="line2d_30">
      <g>
       <use style="stroke:#000000;stroke-width:0.8;" x="72" xlink:href="#maabbaa915b" y="242.116364"/>
      </g>
     </g>
     <g id="text_16">
      <!-- 0.01 -->
      <g transform="translate(45.795312 245.915582)scale(0.1 -0.1)">
       <use xlink:href="#WenQuanYiMicroHei-30"/>
       <use x="55.078125" xlink:href="#WenQuanYiMicroHei-2e"/>
       <use x="81.884766" xlink:href="#WenQuanYiMicroHei-30"/>
       <use x="136.962891" xlink:href="#WenQuanYiMicroHei-31"/>
      </g>
     </g>
    </g>
   </g>
   <g id="line2d_31">
    <path clip-path="url(#p111adc0f27)" d="M 92.290909 44.443636 
L 96.14811 56.574704 
L 100.005312 67.961295 
L 103.862513 78.649096 
L 107.719714 88.680993 
L 111.576916 98.097239 
L 115.434117 106.935614 
L 119.291318 115.231583 
L 123.14852 123.018433 
L 127.005721 130.327408 
L 131.065933 137.537015 
L 135.126145 144.281652 
L 139.186357 150.591308 
L 143.246569 156.494034 
L 147.306781 162.016077 
L 151.570003 167.431351 
L 155.833226 172.480519 
L 160.096448 177.188333 
L 164.359671 181.577869 
L 168.825904 185.858485 
L 173.292137 189.836422 
L 177.961381 193.694758 
L 182.630624 197.268344 
L 187.502879 200.716423 
L 192.578144 204.02658 
L 197.653409 207.072071 
L 202.931684 209.981353 
L 208.41297 212.747175 
L 214.097267 215.364269 
L 219.984574 217.829245 
L 226.074892 220.14047 
L 232.571231 222.363876 
L 239.270581 224.421411 
L 246.375952 226.369948 
L 253.887344 228.197021 
L 261.804757 229.893852 
L 270.331202 231.490623 
L 279.466679 232.970704 
L 289.211187 234.322946 
L 299.767738 235.563212 
L 311.339342 236.697175 
L 324.12901 237.723655 
L 338.339752 238.637823 
L 354.377589 239.443155 
L 372.851553 240.142592 
L 394.573687 240.734712 
L 420.762054 241.217587 
L 453.852781 241.594346 
L 498.109091 241.863959 
L 498.109091 241.863959 
" style="fill:none;stroke:#1f77b4;stroke-linecap:square;stroke-width:1.5;"/>
   </g>
   <g id="line2d_32">
    <path clip-path="url(#p111adc0f27)" d="M 92.290909 242.116364 
L 498.109091 242.116364 
L 498.109091 242.116364 
" style="fill:none;stroke:#ff7f0e;stroke-dasharray:7.5,7.5;stroke-dashoffset:0;stroke-width:1.5;"/>
   </g>
   <g id="patch_3">
    <path d="M 72 252 
L 72 34.56 
" style="fill:none;stroke:#000000;stroke-linecap:square;stroke-linejoin:miter;stroke-width:0.8;"/>
   </g>
   <g id="patch_4">
    <path d="M 518.4 252 
L 518.4 34.56 
" style="fill:none;stroke:#000000;stroke-linecap:square;stroke-linejoin:miter;stroke-width:0.8;"/>
   </g>
   <g id="patch_5">
    <path d="M 72 252 
L 518.4 252 
" style="fill:none;stroke:#000000;stroke-linecap:square;stroke-linejoin:miter;stroke-width:0.8;"/>
   </g>
   <g id="patch_6">
    <path d="M 72 34.56 
L 518.4 34.56 
" style="fill:none;stroke:#000000;stroke-linecap:square;stroke-linejoin:miter;stroke-width:0.8;"/>
   </g>
   <g id="legend_1">
    <g id="patch_7">
     <path d="M 422.142187 87.564687 
L 511.4 87.564687 
Q 513.4 87.564687 513.4 85.564687 
L 513.4 41.56 
Q 513.4 39.56 511.4 39.56 
L 422.142187 39.56 
Q 420.142187 39.56 420.142187 41.56 
L 420.142187 85.564687 
Q 420.142187 87.564687 422.142187 87.564687 
z
" style="fill:#ffffff;opacity:0.8;stroke:#cccccc;stroke-linejoin:miter;"/>
    </g>
    <g id="line2d_33">
     <path d="M 424.142187 47.658437 
L 444.142187 47.658437 
" style="fill:none;stroke:#1f77b4;stroke-linecap:square;stroke-width:1.5;"/>
    </g>
    <g id="line2d_34"/>
    <g id="text_17">
     <!-- epsilon -->
     <g transform="translate(452.142187 51.158437)scale(0.1 -0.1)">
      <defs>
       <path d="M 1900 -63 
Q 1556 -63 1272 53 
Q 988 169 783 391 
Q 578 613 465 941 
Q 353 1269 353 1691 
Q 353 2116 456 2450 
Q 559 2784 746 3017 
Q 934 3250 1195 3372 
Q 1456 3494 1772 3494 
Q 2081 3494 2328 3383 
Q 2575 3272 2747 3070 
Q 2919 2869 3011 2586 
Q 3103 2303 3103 1959 
L 3103 1606 
L 941 1606 
Q 956 1003 1195 718 
Q 1434 434 1906 434 
Q 2066 434 2202 450 
Q 2338 466 2464 495 
Q 2591 525 2709 570 
Q 2828 616 2950 672 
L 2950 166 
Q 2825 106 2704 62 
Q 2584 19 2457 -9 
Q 2331 -38 2195 -50 
Q 2059 -63 1900 -63 
z
M 1759 3022 
Q 1403 3022 1195 2778 
Q 988 2534 953 2069 
L 2491 2069 
Q 2491 2281 2448 2457 
Q 2406 2634 2317 2759 
Q 2228 2884 2090 2953 
Q 1953 3022 1759 3022 
z
" id="WenQuanYiMicroHei-65" transform="scale(0.015625)"/>
       <path d="M 2094 -63 
Q 1909 -63 1759 -22 
Q 1609 19 1489 86 
Q 1369 153 1276 243 
Q 1184 334 1113 434 
L 1075 434 
Q 1084 328 1094 231 
Q 1100 150 1106 64 
Q 1113 -22 1113 -72 
L 1113 -1538 
L 544 -1538 
L 544 3431 
L 1006 3431 
L 1088 2969 
L 1113 2969 
Q 1184 3078 1275 3173 
Q 1366 3269 1486 3339 
Q 1606 3409 1756 3451 
Q 1906 3494 2094 3494 
Q 2388 3494 2628 3381 
Q 2869 3269 3039 3045 
Q 3209 2822 3303 2490 
Q 3397 2159 3397 1722 
Q 3397 1281 3303 948 
Q 3209 616 3039 391 
Q 2869 166 2628 51 
Q 2388 -63 2094 -63 
z
M 1984 3022 
Q 1747 3022 1583 2950 
Q 1419 2878 1317 2731 
Q 1216 2584 1167 2365 
Q 1119 2147 1113 1850 
L 1113 1722 
Q 1113 1406 1155 1161 
Q 1197 916 1298 748 
Q 1400 581 1569 495 
Q 1738 409 1991 409 
Q 2413 409 2611 750 
Q 2809 1091 2809 1728 
Q 2809 2378 2611 2700 
Q 2413 3022 1984 3022 
z
" id="WenQuanYiMicroHei-70" transform="scale(0.015625)"/>
       <path d="M 2597 941 
Q 2597 691 2506 503 
Q 2416 316 2245 189 
Q 2075 63 1834 0 
Q 1594 -63 1294 -63 
Q 953 -63 709 -8 
Q 466 47 281 153 
L 281 672 
Q 378 622 497 573 
Q 616 525 747 487 
Q 878 450 1017 426 
Q 1156 403 1294 403 
Q 1497 403 1639 437 
Q 1781 472 1870 536 
Q 1959 600 2000 692 
Q 2041 784 2041 897 
Q 2041 994 2009 1072 
Q 1978 1150 1895 1226 
Q 1813 1303 1669 1381 
Q 1525 1459 1300 1556 
Q 1075 1653 895 1747 
Q 716 1841 591 1956 
Q 466 2072 398 2223 
Q 331 2375 331 2584 
Q 331 2803 417 2973 
Q 503 3144 659 3259 
Q 816 3375 1034 3434 
Q 1253 3494 1522 3494 
Q 1825 3494 2076 3428 
Q 2328 3363 2553 3256 
L 2356 2797 
Q 2153 2888 1939 2955 
Q 1725 3022 1503 3022 
Q 1184 3022 1031 2917 
Q 878 2813 878 2619 
Q 878 2509 914 2428 
Q 950 2347 1037 2275 
Q 1125 2203 1272 2129 
Q 1419 2056 1638 1966 
Q 1863 1872 2039 1778 
Q 2216 1684 2341 1567 
Q 2466 1450 2531 1300 
Q 2597 1150 2597 941 
z
" id="WenQuanYiMicroHei-73" transform="scale(0.015625)"/>
       <path d="M 1113 0 
L 544 0 
L 544 3431 
L 1113 3431 
L 1113 0 
z
M 500 4359 
Q 500 4547 595 4631 
Q 691 4716 831 4716 
Q 900 4716 961 4695 
Q 1022 4675 1067 4631 
Q 1113 4588 1139 4520 
Q 1166 4453 1166 4359 
Q 1166 4178 1067 4089 
Q 969 4000 831 4000 
Q 691 4000 595 4087 
Q 500 4175 500 4359 
z
" id="WenQuanYiMicroHei-69" transform="scale(0.015625)"/>
       <path d="M 1113 0 
L 544 0 
L 544 4863 
L 1113 4863 
L 1113 0 
z
" id="WenQuanYiMicroHei-6c" transform="scale(0.015625)"/>
       <path d="M 3341 1722 
Q 3341 1294 3236 961 
Q 3131 628 2936 401 
Q 2741 175 2462 56 
Q 2184 -63 1838 -63 
Q 1516 -63 1244 56 
Q 972 175 773 401 
Q 575 628 464 961 
Q 353 1294 353 1722 
Q 353 2147 458 2476 
Q 563 2806 756 3032 
Q 950 3259 1229 3376 
Q 1509 3494 1856 3494 
Q 2178 3494 2450 3376 
Q 2722 3259 2920 3032 
Q 3119 2806 3230 2476 
Q 3341 2147 3341 1722 
z
M 941 1722 
Q 941 1069 1155 739 
Q 1369 409 1850 409 
Q 2331 409 2542 739 
Q 2753 1069 2753 1722 
Q 2753 2375 2539 2698 
Q 2325 3022 1844 3022 
Q 1363 3022 1152 2698 
Q 941 2375 941 1722 
z
" id="WenQuanYiMicroHei-6f" transform="scale(0.015625)"/>
       <path d="M 2688 0 
L 2688 2209 
Q 2688 2616 2523 2819 
Q 2359 3022 2009 3022 
Q 1756 3022 1584 2940 
Q 1413 2859 1308 2700 
Q 1203 2541 1158 2309 
Q 1113 2078 1113 1778 
L 1113 0 
L 544 0 
L 544 3431 
L 1006 3431 
L 1088 2969 
L 1119 2969 
Q 1197 3103 1305 3201 
Q 1413 3300 1541 3365 
Q 1669 3431 1812 3462 
Q 1956 3494 2106 3494 
Q 2678 3494 2967 3195 
Q 3256 2897 3256 2241 
L 3256 0 
L 2688 0 
z
" id="WenQuanYiMicroHei-6e" transform="scale(0.015625)"/>
      </defs>
      <use xlink:href="#WenQuanYiMicroHei-65"/>
      <use x="53.515625" xlink:href="#WenQuanYiMicroHei-70"/>
      <use x="112.109375" xlink:href="#WenQuanYiMicroHei-73"/>
      <use x="157.226562" xlink:href="#WenQuanYiMicroHei-69"/>
      <use x="183.105469" xlink:href="#WenQuanYiMicroHei-6c"/>
      <use x="208.984375" xlink:href="#WenQuanYiMicroHei-6f"/>
      <use x="266.699219" xlink:href="#WenQuanYiMicroHei-6e"/>
     </g>
    </g>
    <g id="line2d_35">
     <path d="M 424.142187 62.66 
L 444.142187 62.66 
" style="fill:none;stroke:#ff7f0e;stroke-dasharray:7.5,7.5;stroke-dashoffset:0;stroke-width:1.5;"/>
    </g>
    <g id="line2d_36"/>
    <g id="text_18">
     <!-- epsilon_end -->
     <g transform="translate(452.142187 66.16)scale(0.1 -0.1)">
      <defs>
       <path d="M 2644 -1013 
L -13 -1013 
L -13 -575 
L 2644 -575 
L 2644 -1013 
z
" id="WenQuanYiMicroHei-5f" transform="scale(0.015625)"/>
       <path d="M 2663 459 
L 2638 459 
Q 2569 353 2476 258 
Q 2384 163 2264 91 
Q 2144 19 1994 -22 
Q 1844 -63 1656 -63 
Q 1366 -63 1125 50 
Q 884 163 712 386 
Q 541 609 447 940 
Q 353 1272 353 1709 
Q 353 2150 447 2483 
Q 541 2816 712 3041 
Q 884 3266 1125 3380 
Q 1366 3494 1656 3494 
Q 1841 3494 1991 3453 
Q 2141 3413 2261 3344 
Q 2381 3275 2475 3184 
Q 2569 3094 2638 2994 
L 2675 2994 
Q 2666 3100 2656 3197 
Q 2650 3278 2644 3364 
Q 2638 3450 2638 3500 
L 2638 4863 
L 3206 4863 
L 3206 0 
L 2747 0 
L 2663 459 
z
M 1766 409 
Q 2003 409 2167 481 
Q 2331 553 2432 700 
Q 2534 847 2582 1067 
Q 2631 1288 2638 1581 
L 2638 1709 
Q 2638 2025 2595 2270 
Q 2553 2516 2451 2683 
Q 2350 2850 2181 2936 
Q 2013 3022 1759 3022 
Q 1338 3022 1139 2681 
Q 941 2341 941 1703 
Q 941 1050 1139 729 
Q 1338 409 1766 409 
z
" id="WenQuanYiMicroHei-64" transform="scale(0.015625)"/>
      </defs>
      <use xlink:href="#WenQuanYiMicroHei-65"/>
      <use x="53.515625" xlink:href="#WenQuanYiMicroHei-70"/>
      <use x="112.109375" xlink:href="#WenQuanYiMicroHei-73"/>
      <use x="157.226562" xlink:href="#WenQuanYiMicroHei-69"/>
      <use x="183.105469" xlink:href="#WenQuanYiMicroHei-6c"/>
      <use x="208.984375" xlink:href="#WenQuanYiMicroHei-6f"/>
      <use x="266.699219" xlink:href="#WenQuanYiMicroHei-6e"/>
      <use x="325.585938" xlink:href="#WenQuanYiMicroHei-5f"/>
      <use x="366.699219" xlink:href="#WenQuanYiMicroHei-65"/>
      <use x="420.214844" xlink:href="#WenQuanYiMicroHei-6e"/>
      <use x="479.101562" xlink:href="#WenQuanYiMicroHei-64"/>
     </g>
    </g>
    <g id="PathCollection_2">
     <g>
      <use style="fill:#008000;stroke:#008000;" x="434.142187" xlink:href="#mdb6f20ae19" y="78.536563"/>
     </g>
    </g>
    <g id="text_19">
     <!-- epsilon_start -->
     <g transform="translate(452.142187 81.161563)scale(0.1 -0.1)">
      <defs>
       <path d="M 1581 403 
Q 1638 403 1708 409 
Q 1778 416 1843 425 
Q 1909 434 1964 446 
Q 2019 459 2047 469 
L 2047 38 
Q 2006 19 1943 0 
Q 1881 -19 1806 -33 
Q 1731 -47 1650 -55 
Q 1569 -63 1491 -63 
Q 1297 -63 1131 -12 
Q 966 38 845 159 
Q 725 281 656 489 
Q 588 697 588 1013 
L 588 3003 
L 103 3003 
L 103 3256 
L 588 3500 
L 831 4219 
L 1159 4219 
L 1159 3431 
L 2022 3431 
L 2022 3003 
L 1159 3003 
L 1159 1013 
Q 1159 709 1257 556 
Q 1356 403 1581 403 
z
" id="WenQuanYiMicroHei-74" transform="scale(0.015625)"/>
       <path d="M 2478 0 
L 2363 475 
L 2338 475 
Q 2234 334 2131 232 
Q 2028 131 1906 65 
Q 1784 0 1634 -31 
Q 1484 -63 1288 -63 
Q 1072 -63 890 -2 
Q 709 59 576 186 
Q 444 313 369 505 
Q 294 697 294 959 
Q 294 1472 655 1747 
Q 1016 2022 1753 2047 
L 2328 2069 
L 2328 2284 
Q 2328 2494 2283 2634 
Q 2238 2775 2152 2861 
Q 2066 2947 1939 2984 
Q 1813 3022 1650 3022 
Q 1391 3022 1167 2947 
Q 944 2872 738 2766 
L 538 3194 
Q 769 3319 1053 3406 
Q 1338 3494 1650 3494 
Q 1969 3494 2201 3430 
Q 2434 3366 2586 3227 
Q 2738 3088 2813 2872 
Q 2888 2656 2888 2350 
L 2888 0 
L 2478 0 
z
M 1434 397 
Q 1625 397 1787 456 
Q 1950 516 2069 636 
Q 2188 756 2255 939 
Q 2322 1122 2322 1369 
L 2322 1678 
L 1875 1656 
Q 1594 1644 1403 1594 
Q 1213 1544 1098 1455 
Q 984 1366 934 1239 
Q 884 1113 884 953 
Q 884 666 1036 531 
Q 1188 397 1434 397 
z
" id="WenQuanYiMicroHei-61" transform="scale(0.015625)"/>
       <path d="M 2028 3494 
Q 2119 3494 2231 3486 
Q 2344 3478 2425 3463 
L 2350 2938 
Q 2263 2953 2170 2964 
Q 2078 2975 1997 2975 
Q 1800 2975 1637 2895 
Q 1475 2816 1358 2667 
Q 1241 2519 1177 2311 
Q 1113 2103 1113 1850 
L 1113 0 
L 544 0 
L 544 3431 
L 1006 3431 
L 1075 2803 
L 1100 2803 
Q 1178 2938 1267 3063 
Q 1356 3188 1467 3283 
Q 1578 3378 1715 3436 
Q 1853 3494 2028 3494 
z
" id="WenQuanYiMicroHei-72" transform="scale(0.015625)"/>
      </defs>
      <use xlink:href="#WenQuanYiMicroHei-65"/>
      <use x="53.515625" xlink:href="#WenQuanYiMicroHei-70"/>
      <use x="112.109375" xlink:href="#WenQuanYiMicroHei-73"/>
      <use x="157.226562" xlink:href="#WenQuanYiMicroHei-69"/>
      <use x="183.105469" xlink:href="#WenQuanYiMicroHei-6c"/>
      <use x="208.984375" xlink:href="#WenQuanYiMicroHei-6f"/>
      <use x="266.699219" xlink:href="#WenQuanYiMicroHei-6e"/>
      <use x="325.585938" xlink:href="#WenQuanYiMicroHei-5f"/>
      <use x="366.699219" xlink:href="#WenQuanYiMicroHei-73"/>
      <use x="411.816406" xlink:href="#WenQuanYiMicroHei-74"/>
      <use x="445.703125" xlink:href="#WenQuanYiMicroHei-61"/>
      <use x="498.779297" xlink:href="#WenQuanYiMicroHei-72"/>
      <use x="538.671875" xlink:href="#WenQuanYiMicroHei-74"/>
     </g>
    </g>
   </g>
  </g>
 </g>
 <defs>
  <clipPath id="p111adc0f27">
   <rect height="217.44" width="446.4" x="72" y="34.56"/>
  </clipPath>
 </defs>
</svg>
