<?xml version="1.0" encoding="utf-8" standalone="no"?>
<!DOCTYPE svg PUBLIC "-//W3C//DTD SVG 1.1//EN"
  "http://www.w3.org/Graphics/SVG/1.1/DTD/svg11.dtd">
<svg height="288pt" version="1.1" viewBox="0 0 576 288" width="576pt" xmlns="http://www.w3.org/2000/svg" xmlns:xlink="http://www.w3.org/1999/xlink">
 <metadata>
  <rdf:RDF xmlns:cc="http://creativecommons.org/ns#" xmlns:dc="http://purl.org/dc/elements/1.1/" xmlns:rdf="http://www.w3.org/1999/02/22-rdf-syntax-ns#">
   <cc:Work>
    <dc:type rdf:resource="http://purl.org/dc/dcmitype/StillImage"/>
    <dc:date>2022-04-29T02:11:42.575451</dc:date>
    <dc:format>image/svg+xml</dc:format>
    <dc:creator>
     <cc:Agent>
      <dc:title>Matplotlib v3.4.3, https://matplotlib.org/</dc:title>
     </cc:Agent>
    </dc:creator>
   </cc:Work>
  </rdf:RDF>
 </metadata>
 <defs>
  <style type="text/css">*{stroke-linecap:butt;stroke-linejoin:round;}</style>
 </defs>
 <g id="figure_1">
  <g id="patch_1">
   <path d="M 0 288 
L 576 288 
L 576 0 
L 0 0 
z
" style="fill:none;"/>
  </g>
  <g id="axes_1">
   <g id="patch_2">
    <path d="M 72 252 
L 518.4 252 
L 518.4 34.56 
L 72 34.56 
z
" style="fill:#ffffff;"/>
   </g>
   <g id="matplotlib.axis_1">
    <g id="xtick_1">
     <g id="line2d_1">
      <path clip-path="url(#pd189f1eb48)" d="M 92.290909 252 
L 92.290909 34.56 
" style="fill:none;stroke:#b0b0b0;stroke-linecap:square;stroke-width:0.8;"/>
     </g>
     <g id="line2d_2">
      <defs>
       <path d="M 0 0 
L 0 3.5 
" id="mf7cdef982c" style="stroke:#000000;stroke-width:0.8;"/>
      </defs>
      <g>
       <use style="stroke:#000000;stroke-width:0.8;" x="92.290909" xlink:href="#mf7cdef982c" y="252"/>
      </g>
     </g>
     <g id="text_1">
      <!-- 0 -->
      <g transform="translate(89.537003 266.598437)scale(0.1 -0.1)">
       <defs>
        <path d="M 3225 2291 
Q 3225 1738 3145 1300 
Q 3066 863 2889 559 
Q 2713 256 2434 96 
Q 2156 -63 1759 -63 
Q 1391 -63 1117 96 
Q 844 256 664 559 
Q 484 863 395 1300 
Q 306 1738 306 2291 
Q 306 2844 386 3281 
Q 466 3719 639 4020 
Q 813 4322 1089 4481 
Q 1366 4641 1759 4641 
Q 2131 4641 2406 4483 
Q 2681 4325 2862 4023 
Q 3044 3722 3134 3284 
Q 3225 2847 3225 2291 
z
M 884 2291 
Q 884 1822 931 1472 
Q 978 1122 1081 889 
Q 1184 656 1351 539 
Q 1519 422 1759 422 
Q 2000 422 2169 537 
Q 2338 653 2445 884 
Q 2553 1116 2601 1467 
Q 2650 1819 2650 2291 
Q 2650 2759 2601 3109 
Q 2553 3459 2445 3690 
Q 2338 3922 2169 4037 
Q 2000 4153 1759 4153 
Q 1519 4153 1351 4037 
Q 1184 3922 1081 3690 
Q 978 3459 931 3109 
Q 884 2759 884 2291 
z
" id="WenQuanYiMicroHei-30" transform="scale(0.015625)"/>
       </defs>
       <use xlink:href="#WenQuanYiMicroHei-30"/>
      </g>
     </g>
    </g>
    <g id="xtick_2">
     <g id="line2d_3">
      <path clip-path="url(#pd189f1eb48)" d="M 161.073652 252 
L 161.073652 34.56 
" style="fill:none;stroke:#b0b0b0;stroke-linecap:square;stroke-width:0.8;"/>
     </g>
     <g id="line2d_4">
      <g>
       <use style="stroke:#000000;stroke-width:0.8;" x="161.073652" xlink:href="#mf7cdef982c" y="252"/>
      </g>
     </g>
     <g id="text_2">
      <!-- 10 -->
      <g transform="translate(155.565839 266.598437)scale(0.1 -0.1)">
       <defs>
        <path d="M 2222 0 
L 1672 0 
L 1672 2853 
Q 1672 2988 1673 3141 
Q 1675 3294 1679 3445 
Q 1684 3597 1689 3736 
Q 1694 3875 1697 3981 
Q 1644 3925 1603 3884 
Q 1563 3844 1520 3806 
Q 1478 3769 1431 3726 
Q 1384 3684 1319 3628 
L 856 3250 
L 556 3634 
L 1753 4569 
L 2222 4569 
L 2222 0 
z
" id="WenQuanYiMicroHei-31" transform="scale(0.015625)"/>
       </defs>
       <use xlink:href="#WenQuanYiMicroHei-31"/>
       <use x="55.078125" xlink:href="#WenQuanYiMicroHei-30"/>
      </g>
     </g>
    </g>
    <g id="xtick_3">
     <g id="line2d_5">
      <path clip-path="url(#pd189f1eb48)" d="M 229.856394 252 
L 229.856394 34.56 
" style="fill:none;stroke:#b0b0b0;stroke-linecap:square;stroke-width:0.8;"/>
     </g>
     <g id="line2d_6">
      <g>
       <use style="stroke:#000000;stroke-width:0.8;" x="229.856394" xlink:href="#mf7cdef982c" y="252"/>
      </g>
     </g>
     <g id="text_3">
      <!-- 20 -->
      <g transform="translate(224.348582 266.598437)scale(0.1 -0.1)">
       <defs>
        <path d="M 3150 0 
L 300 0 
L 300 488 
L 1394 1678 
Q 1628 1931 1812 2140 
Q 1997 2350 2126 2550 
Q 2256 2750 2325 2951 
Q 2394 3153 2394 3391 
Q 2394 3575 2341 3715 
Q 2288 3856 2189 3954 
Q 2091 4053 1956 4103 
Q 1822 4153 1656 4153 
Q 1359 4153 1120 4033 
Q 881 3913 666 3725 
L 347 4097 
Q 472 4209 615 4307 
Q 759 4406 925 4478 
Q 1091 4550 1275 4592 
Q 1459 4634 1663 4634 
Q 1963 4634 2205 4550 
Q 2447 4466 2615 4308 
Q 2784 4150 2876 3923 
Q 2969 3697 2969 3413 
Q 2969 3147 2886 2906 
Q 2803 2666 2658 2433 
Q 2513 2200 2311 1965 
Q 2109 1731 1875 1478 
L 997 544 
L 997 519 
L 3150 519 
L 3150 0 
z
" id="WenQuanYiMicroHei-32" transform="scale(0.015625)"/>
       </defs>
       <use xlink:href="#WenQuanYiMicroHei-32"/>
       <use x="55.078125" xlink:href="#WenQuanYiMicroHei-30"/>
      </g>
     </g>
    </g>
    <g id="xtick_4">
     <g id="line2d_7">
      <path clip-path="url(#pd189f1eb48)" d="M 298.639137 252 
L 298.639137 34.56 
" style="fill:none;stroke:#b0b0b0;stroke-linecap:square;stroke-width:0.8;"/>
     </g>
     <g id="line2d_8">
      <g>
       <use style="stroke:#000000;stroke-width:0.8;" x="298.639137" xlink:href="#mf7cdef982c" y="252"/>
      </g>
     </g>
     <g id="text_4">
      <!-- 30 -->
      <g transform="translate(293.131325 266.598437)scale(0.1 -0.1)">
       <defs>
        <path d="M 3003 3500 
Q 3003 3272 2931 3084 
Q 2859 2897 2729 2759 
Q 2600 2622 2419 2533 
Q 2238 2444 2016 2406 
L 2016 2388 
Q 2569 2319 2856 2036 
Q 3144 1753 3144 1300 
Q 3144 1000 3042 750 
Q 2941 500 2734 319 
Q 2528 138 2212 37 
Q 1897 -63 1466 -63 
Q 1125 -63 823 -9 
Q 522 44 256 184 
L 256 716 
Q 528 572 845 494 
Q 1163 416 1453 416 
Q 1741 416 1950 478 
Q 2159 541 2295 656 
Q 2431 772 2495 940 
Q 2559 1109 2559 1319 
Q 2559 1531 2476 1682 
Q 2394 1834 2241 1932 
Q 2088 2031 1867 2078 
Q 1647 2125 1369 2125 
L 953 2125 
L 953 2597 
L 1369 2597 
Q 1622 2597 1819 2659 
Q 2016 2722 2148 2837 
Q 2281 2953 2350 3112 
Q 2419 3272 2419 3463 
Q 2419 3625 2362 3753 
Q 2306 3881 2203 3970 
Q 2100 4059 1956 4106 
Q 1813 4153 1638 4153 
Q 1303 4153 1048 4048 
Q 794 3944 563 3775 
L 275 4166 
Q 394 4263 539 4347 
Q 684 4431 856 4495 
Q 1028 4559 1223 4596 
Q 1419 4634 1638 4634 
Q 1975 4634 2229 4550 
Q 2484 4466 2656 4314 
Q 2828 4163 2915 3955 
Q 3003 3747 3003 3500 
z
" id="WenQuanYiMicroHei-33" transform="scale(0.015625)"/>
       </defs>
       <use xlink:href="#WenQuanYiMicroHei-33"/>
       <use x="55.078125" xlink:href="#WenQuanYiMicroHei-30"/>
      </g>
     </g>
    </g>
    <g id="xtick_5">
     <g id="line2d_9">
      <path clip-path="url(#pd189f1eb48)" d="M 367.42188 252 
L 367.42188 34.56 
" style="fill:none;stroke:#b0b0b0;stroke-linecap:square;stroke-width:0.8;"/>
     </g>
     <g id="line2d_10">
      <g>
       <use style="stroke:#000000;stroke-width:0.8;" x="367.42188" xlink:href="#mf7cdef982c" y="252"/>
      </g>
     </g>
     <g id="text_5">
      <!-- 40 -->
      <g transform="translate(361.914067 266.598437)scale(0.1 -0.1)">
       <defs>
        <path d="M 3397 1025 
L 2731 1025 
L 2731 0 
L 2181 0 
L 2181 1025 
L 72 1025 
L 72 1522 
L 2144 4594 
L 2731 4594 
L 2731 1544 
L 3397 1544 
L 3397 1025 
z
M 2181 1544 
L 2181 2656 
Q 2181 2831 2186 3023 
Q 2191 3216 2197 3398 
Q 2203 3581 2211 3740 
Q 2219 3900 2222 4006 
L 2194 4006 
Q 2172 3944 2139 3867 
Q 2106 3791 2067 3714 
Q 2028 3638 1987 3566 
Q 1947 3494 1913 3444 
L 628 1544 
L 2181 1544 
z
" id="WenQuanYiMicroHei-34" transform="scale(0.015625)"/>
       </defs>
       <use xlink:href="#WenQuanYiMicroHei-34"/>
       <use x="55.078125" xlink:href="#WenQuanYiMicroHei-30"/>
      </g>
     </g>
    </g>
    <g id="xtick_6">
     <g id="line2d_11">
      <path clip-path="url(#pd189f1eb48)" d="M 436.204622 252 
L 436.204622 34.56 
" style="fill:none;stroke:#b0b0b0;stroke-linecap:square;stroke-width:0.8;"/>
     </g>
     <g id="line2d_12">
      <g>
       <use style="stroke:#000000;stroke-width:0.8;" x="436.204622" xlink:href="#mf7cdef982c" y="252"/>
      </g>
     </g>
     <g id="text_6">
      <!-- 50 -->
      <g transform="translate(430.69681 266.598437)scale(0.1 -0.1)">
       <defs>
        <path d="M 1703 2803 
Q 2013 2803 2280 2717 
Q 2547 2631 2745 2462 
Q 2944 2294 3056 2044 
Q 3169 1794 3169 1466 
Q 3169 1109 3062 825 
Q 2956 541 2747 344 
Q 2538 147 2230 42 
Q 1922 -63 1522 -63 
Q 1363 -63 1208 -47 
Q 1053 -31 911 -1 
Q 769 28 641 75 
Q 513 122 409 184 
L 409 722 
Q 513 650 652 594 
Q 791 538 944 500 
Q 1097 463 1251 442 
Q 1406 422 1538 422 
Q 1784 422 1978 480 
Q 2172 538 2306 659 
Q 2441 781 2512 965 
Q 2584 1150 2584 1403 
Q 2584 1850 2309 2086 
Q 2034 2322 1509 2322 
Q 1425 2322 1326 2314 
Q 1228 2306 1129 2293 
Q 1031 2281 942 2267 
Q 853 2253 788 2241 
L 506 2419 
L 678 4569 
L 2834 4569 
L 2834 4050 
L 1172 4050 
L 1050 2741 
Q 1150 2759 1314 2781 
Q 1478 2803 1703 2803 
z
" id="WenQuanYiMicroHei-35" transform="scale(0.015625)"/>
       </defs>
       <use xlink:href="#WenQuanYiMicroHei-35"/>
       <use x="55.078125" xlink:href="#WenQuanYiMicroHei-30"/>
      </g>
     </g>
    </g>
    <g id="xtick_7">
     <g id="line2d_13">
      <path clip-path="url(#pd189f1eb48)" d="M 504.987365 252 
L 504.987365 34.56 
" style="fill:none;stroke:#b0b0b0;stroke-linecap:square;stroke-width:0.8;"/>
     </g>
     <g id="line2d_14">
      <g>
       <use style="stroke:#000000;stroke-width:0.8;" x="504.987365" xlink:href="#mf7cdef982c" y="252"/>
      </g>
     </g>
     <g id="text_7">
      <!-- 60 -->
      <g transform="translate(499.479553 266.598437)scale(0.1 -0.1)">
       <defs>
        <path d="M 353 1953 
Q 353 2281 386 2606 
Q 419 2931 501 3229 
Q 584 3528 728 3784 
Q 872 4041 1094 4230 
Q 1316 4419 1625 4526 
Q 1934 4634 2350 4634 
Q 2409 4634 2481 4631 
Q 2553 4628 2626 4620 
Q 2700 4613 2767 4602 
Q 2834 4591 2888 4575 
L 2888 4091 
Q 2778 4128 2640 4147 
Q 2503 4166 2369 4166 
Q 2088 4166 1873 4098 
Q 1659 4031 1503 3909 
Q 1347 3788 1242 3619 
Q 1138 3450 1072 3245 
Q 1006 3041 975 2809 
Q 944 2578 934 2328 
L 972 2328 
Q 1034 2441 1123 2539 
Q 1213 2638 1331 2708 
Q 1450 2778 1598 2818 
Q 1747 2859 1931 2859 
Q 2228 2859 2468 2767 
Q 2709 2675 2878 2497 
Q 3047 2319 3139 2061 
Q 3231 1803 3231 1472 
Q 3231 1116 3134 831 
Q 3038 547 2856 348 
Q 2675 150 2419 43 
Q 2163 -63 1844 -63 
Q 1531 -63 1257 59 
Q 984 181 784 431 
Q 584 681 468 1059 
Q 353 1438 353 1953 
z
M 1838 416 
Q 2025 416 2179 480 
Q 2334 544 2446 673 
Q 2559 803 2620 1001 
Q 2681 1200 2681 1472 
Q 2681 1691 2629 1864 
Q 2578 2038 2475 2159 
Q 2372 2281 2217 2347 
Q 2063 2413 1856 2413 
Q 1647 2413 1473 2339 
Q 1300 2266 1178 2148 
Q 1056 2031 989 1881 
Q 922 1731 922 1581 
Q 922 1372 980 1164 
Q 1038 956 1152 790 
Q 1266 625 1437 520 
Q 1609 416 1838 416 
z
" id="WenQuanYiMicroHei-36" transform="scale(0.015625)"/>
       </defs>
       <use xlink:href="#WenQuanYiMicroHei-36"/>
       <use x="55.078125" xlink:href="#WenQuanYiMicroHei-30"/>
      </g>
     </g>
    </g>
    <g id="text_8">
     <!-- 等待时间（min） -->
     <g transform="translate(256.482031 280.6)scale(0.1 -0.1)">
      <defs>
       <path d="M 1375 5225 
L 1875 5075 
L 1725 4800 
L 3175 4800 
L 3175 4375 
L 2375 4375 
Q 2575 4175 2750 3975 
L 2300 3725 
Q 2100 4050 1825 4375 
L 1425 4375 
Q 1125 3975 725 3675 
L 325 3975 
Q 1075 4550 1375 5225 
z
M 3975 5225 
L 4450 5075 
Q 4400 4950 4325 4800 
L 6050 4800 
L 6050 4375 
L 5050 4375 
L 5275 4100 
L 4825 3850 
Q 4675 4100 4475 4375 
L 4050 4375 
Q 3800 4025 3475 3750 
L 3050 4050 
Q 3675 4575 3975 5225 
z
M 825 3350 
L 2975 3350 
L 2975 3675 
L 3475 3675 
L 3475 3350 
L 5525 3350 
L 5525 2900 
L 3475 2900 
L 3475 2425 
L 6025 2425 
L 6025 1975 
L 375 1975 
L 375 2425 
L 2975 2425 
L 2975 2900 
L 825 2900 
L 825 3350 
z
M 650 1475 
L 4325 1475 
L 4325 1825 
L 4825 1825 
L 4825 1475 
L 5825 1475 
L 5825 1025 
L 4825 1025 
L 4825 75 
Q 4825 -275 4637 -412 
Q 4450 -550 3800 -550 
Q 3325 -550 2900 -450 
L 2825 50 
Q 3300 -75 3800 -75 
Q 4075 -75 4200 -12 
Q 4325 50 4325 150 
L 4325 1025 
L 650 1025 
L 650 1475 
z
M 1575 925 
Q 1950 625 2350 225 
L 1925 -100 
Q 1600 275 1150 625 
L 1575 925 
z
" id="WenQuanYiMicroHei-7b49" transform="scale(0.015625)"/>
       <path d="M 1625 5175 
L 2050 4950 
Q 1575 4025 650 3350 
L 350 3750 
Q 1225 4425 1625 5175 
z
M 1850 3750 
L 2275 3525 
Q 2025 3025 1600 2500 
L 1600 -600 
L 1125 -600 
L 1125 2000 
Q 825 1700 600 1525 
L 300 1925 
Q 1300 2725 1850 3750 
z
M 2625 4450 
L 3975 4450 
L 3975 5200 
L 4475 5200 
L 4475 4450 
L 5825 4450 
L 5825 4000 
L 4475 4000 
L 4475 3250 
L 6050 3250 
L 6050 2775 
L 2300 2775 
L 2300 3250 
L 3975 3250 
L 3975 4000 
L 2625 4000 
L 2625 4450 
z
M 2350 2050 
L 4875 2050 
L 4875 2600 
L 5375 2600 
L 5375 2050 
L 6075 2050 
L 6075 1575 
L 5375 1575 
L 5375 75 
Q 5375 -300 5212 -437 
Q 5050 -575 4600 -575 
Q 4250 -575 3900 -500 
L 3825 25 
Q 4225 -75 4600 -75 
Q 4875 -75 4875 175 
L 4875 1575 
L 2350 1575 
L 2350 2050 
z
M 3300 1325 
Q 3600 925 3800 450 
L 3325 225 
Q 3150 725 2850 1125 
L 3300 1325 
z
" id="WenQuanYiMicroHei-5f85" transform="scale(0.015625)"/>
       <path d="M 2750 3875 
L 4800 3875 
L 4800 5175 
L 5300 5175 
L 5300 3875 
L 6050 3875 
L 6050 3400 
L 5300 3400 
L 5300 125 
Q 5300 -250 5162 -400 
Q 5025 -550 4675 -550 
Q 4275 -550 3900 -450 
L 3800 75 
Q 4200 -50 4600 -50 
Q 4700 -50 4750 0 
Q 4800 50 4800 250 
L 4800 3400 
L 2750 3400 
L 2750 3875 
z
M 3475 2975 
Q 3950 2200 4275 1300 
L 3775 1075 
Q 3475 2025 3025 2775 
L 3475 2975 
z
M 2525 4700 
L 2525 275 
L 2050 275 
L 2050 625 
L 950 625 
L 950 75 
L 475 75 
L 475 4700 
L 2525 4700 
z
M 950 2900 
L 2050 2900 
L 2050 4250 
L 950 4250 
L 950 2900 
z
M 950 1075 
L 2050 1075 
L 2050 2450 
L 950 2450 
L 950 1075 
z
" id="WenQuanYiMicroHei-65f6" transform="scale(0.015625)"/>
       <path d="M 1600 5250 
Q 1950 4850 2175 4375 
L 1725 4100 
Q 1525 4575 1175 4975 
L 1600 5250 
z
M 2675 4950 
L 5750 4950 
L 5750 100 
Q 5750 -250 5600 -425 
Q 5450 -600 5175 -600 
Q 4975 -600 4700 -575 
L 4575 -50 
Q 4875 -100 5075 -100 
Q 5250 -100 5250 250 
L 5250 4500 
L 2675 4500 
L 2675 4950 
z
M 650 4050 
L 1150 4050 
L 1150 -575 
L 650 -575 
L 650 4050 
z
M 4325 3525 
L 4325 550 
L 2050 550 
L 2050 3525 
L 4325 3525 
z
M 3850 2275 
L 3850 3075 
L 2525 3075 
L 2525 2275 
L 3850 2275 
z
M 2525 1800 
L 2525 975 
L 3850 975 
L 3850 1800 
L 2525 1800 
z
" id="WenQuanYiMicroHei-95f4" transform="scale(0.015625)"/>
       <path d="M 4100 4575 
L 4700 4575 
Q 3050 3575 3050 1750 
Q 3050 -25 4700 -1000 
L 4100 -1000 
Q 3375 -675 2912 87 
Q 2450 850 2450 1750 
Q 2450 2675 2912 3437 
Q 3375 4200 4100 4575 
z
" id="WenQuanYiMicroHei-ff08" transform="scale(0.015625)"/>
       <path d="M 4653 0 
L 4653 2209 
Q 4653 2616 4497 2819 
Q 4341 3022 4013 3022 
Q 3784 3022 3625 2948 
Q 3466 2875 3364 2733 
Q 3263 2591 3216 2380 
Q 3169 2169 3169 1894 
L 3169 0 
L 2597 0 
L 2597 2209 
Q 2597 2616 2442 2819 
Q 2288 3022 1959 3022 
Q 1719 3022 1556 2940 
Q 1394 2859 1295 2700 
Q 1197 2541 1155 2309 
Q 1113 2078 1113 1778 
L 1113 0 
L 544 0 
L 544 3431 
L 1006 3431 
L 1088 2969 
L 1119 2969 
Q 1194 3103 1297 3201 
Q 1400 3300 1523 3365 
Q 1647 3431 1786 3462 
Q 1925 3494 2069 3494 
Q 2444 3494 2692 3356 
Q 2941 3219 3059 2925 
L 3084 2925 
Q 3166 3072 3280 3178 
Q 3394 3284 3530 3354 
Q 3666 3425 3816 3459 
Q 3966 3494 4122 3494 
Q 4669 3494 4945 3195 
Q 5222 2897 5222 2241 
L 5222 0 
L 4653 0 
z
" id="WenQuanYiMicroHei-6d" transform="scale(0.015625)"/>
       <path d="M 1113 0 
L 544 0 
L 544 3431 
L 1113 3431 
L 1113 0 
z
M 500 4359 
Q 500 4547 595 4631 
Q 691 4716 831 4716 
Q 900 4716 961 4695 
Q 1022 4675 1067 4631 
Q 1113 4588 1139 4520 
Q 1166 4453 1166 4359 
Q 1166 4178 1067 4089 
Q 969 4000 831 4000 
Q 691 4000 595 4087 
Q 500 4175 500 4359 
z
" id="WenQuanYiMicroHei-69" transform="scale(0.015625)"/>
       <path d="M 2688 0 
L 2688 2209 
Q 2688 2616 2523 2819 
Q 2359 3022 2009 3022 
Q 1756 3022 1584 2940 
Q 1413 2859 1308 2700 
Q 1203 2541 1158 2309 
Q 1113 2078 1113 1778 
L 1113 0 
L 544 0 
L 544 3431 
L 1006 3431 
L 1088 2969 
L 1119 2969 
Q 1197 3103 1305 3201 
Q 1413 3300 1541 3365 
Q 1669 3431 1812 3462 
Q 1956 3494 2106 3494 
Q 2678 3494 2967 3195 
Q 3256 2897 3256 2241 
L 3256 0 
L 2688 0 
z
" id="WenQuanYiMicroHei-6e" transform="scale(0.015625)"/>
       <path d="M 2300 -1000 
L 1700 -1000 
Q 3350 -25 3350 1750 
Q 3350 3575 1700 4575 
L 2300 4575 
Q 3025 4200 3487 3437 
Q 3950 2675 3950 1750 
Q 3950 850 3487 87 
Q 3025 -675 2300 -1000 
z
" id="WenQuanYiMicroHei-ff09" transform="scale(0.015625)"/>
      </defs>
      <use xlink:href="#WenQuanYiMicroHei-7b49"/>
      <use x="100" xlink:href="#WenQuanYiMicroHei-5f85"/>
      <use x="200" xlink:href="#WenQuanYiMicroHei-65f6"/>
      <use x="300" xlink:href="#WenQuanYiMicroHei-95f4"/>
      <use x="400" xlink:href="#WenQuanYiMicroHei-ff08"/>
      <use x="500" xlink:href="#WenQuanYiMicroHei-6d"/>
      <use x="589.599609" xlink:href="#WenQuanYiMicroHei-69"/>
      <use x="615.478516" xlink:href="#WenQuanYiMicroHei-6e"/>
      <use x="674.365234" xlink:href="#WenQuanYiMicroHei-ff09"/>
     </g>
    </g>
   </g>
   <g id="matplotlib.axis_2">
    <g id="ytick_1">
     <g id="line2d_15">
      <path clip-path="url(#pd189f1eb48)" d="M 72 242.116742 
L 518.4 242.116742 
" style="fill:none;stroke:#b0b0b0;stroke-linecap:square;stroke-width:0.8;"/>
     </g>
     <g id="line2d_16">
      <defs>
       <path d="M 0 0 
L -3.5 0 
" id="me66648e06e" style="stroke:#000000;stroke-width:0.8;"/>
      </defs>
      <g>
       <use style="stroke:#000000;stroke-width:0.8;" x="72" xlink:href="#me66648e06e" y="242.116742"/>
      </g>
     </g>
     <g id="text_9">
      <!-- 0.000 -->
      <g transform="translate(40.2875 245.915961)scale(0.1 -0.1)">
       <defs>
        <path d="M 459 347 
Q 459 466 490 548 
Q 522 631 575 682 
Q 628 734 700 757 
Q 772 781 856 781 
Q 938 781 1011 757 
Q 1084 734 1137 682 
Q 1191 631 1222 548 
Q 1253 466 1253 347 
Q 1253 231 1222 148 
Q 1191 66 1137 12 
Q 1084 -41 1011 -66 
Q 938 -91 856 -91 
Q 772 -91 700 -66 
Q 628 -41 575 12 
Q 522 66 490 148 
Q 459 231 459 347 
z
" id="WenQuanYiMicroHei-2e" transform="scale(0.015625)"/>
       </defs>
       <use xlink:href="#WenQuanYiMicroHei-30"/>
       <use x="55.078125" xlink:href="#WenQuanYiMicroHei-2e"/>
       <use x="81.884766" xlink:href="#WenQuanYiMicroHei-30"/>
       <use x="136.962891" xlink:href="#WenQuanYiMicroHei-30"/>
       <use x="192.041016" xlink:href="#WenQuanYiMicroHei-30"/>
      </g>
     </g>
    </g>
    <g id="ytick_2">
     <g id="line2d_17">
      <path clip-path="url(#pd189f1eb48)" d="M 72 217.407604 
L 518.4 217.407604 
" style="fill:none;stroke:#b0b0b0;stroke-linecap:square;stroke-width:0.8;"/>
     </g>
     <g id="line2d_18">
      <g>
       <use style="stroke:#000000;stroke-width:0.8;" x="72" xlink:href="#me66648e06e" y="217.407604"/>
      </g>
     </g>
     <g id="text_10">
      <!-- 0.025 -->
      <g transform="translate(40.2875 221.206823)scale(0.1 -0.1)">
       <use xlink:href="#WenQuanYiMicroHei-30"/>
       <use x="55.078125" xlink:href="#WenQuanYiMicroHei-2e"/>
       <use x="81.884766" xlink:href="#WenQuanYiMicroHei-30"/>
       <use x="136.962891" xlink:href="#WenQuanYiMicroHei-32"/>
       <use x="192.041016" xlink:href="#WenQuanYiMicroHei-35"/>
      </g>
     </g>
    </g>
    <g id="ytick_3">
     <g id="line2d_19">
      <path clip-path="url(#pd189f1eb48)" d="M 72 192.698466 
L 518.4 192.698466 
" style="fill:none;stroke:#b0b0b0;stroke-linecap:square;stroke-width:0.8;"/>
     </g>
     <g id="line2d_20">
      <g>
       <use style="stroke:#000000;stroke-width:0.8;" x="72" xlink:href="#me66648e06e" y="192.698466"/>
      </g>
     </g>
     <g id="text_11">
      <!-- 0.050 -->
      <g transform="translate(40.2875 196.497685)scale(0.1 -0.1)">
       <use xlink:href="#WenQuanYiMicroHei-30"/>
       <use x="55.078125" xlink:href="#WenQuanYiMicroHei-2e"/>
       <use x="81.884766" xlink:href="#WenQuanYiMicroHei-30"/>
       <use x="136.962891" xlink:href="#WenQuanYiMicroHei-35"/>
       <use x="192.041016" xlink:href="#WenQuanYiMicroHei-30"/>
      </g>
     </g>
    </g>
    <g id="ytick_4">
     <g id="line2d_21">
      <path clip-path="url(#pd189f1eb48)" d="M 72 167.989328 
L 518.4 167.989328 
" style="fill:none;stroke:#b0b0b0;stroke-linecap:square;stroke-width:0.8;"/>
     </g>
     <g id="line2d_22">
      <g>
       <use style="stroke:#000000;stroke-width:0.8;" x="72" xlink:href="#me66648e06e" y="167.989328"/>
      </g>
     </g>
     <g id="text_12">
      <!-- 0.075 -->
      <g transform="translate(40.2875 171.788546)scale(0.1 -0.1)">
       <defs>
        <path d="M 878 0 
L 2638 4050 
L 281 4050 
L 281 4569 
L 3219 4569 
L 3219 4116 
L 1484 0 
L 878 0 
z
" id="WenQuanYiMicroHei-37" transform="scale(0.015625)"/>
       </defs>
       <use xlink:href="#WenQuanYiMicroHei-30"/>
       <use x="55.078125" xlink:href="#WenQuanYiMicroHei-2e"/>
       <use x="81.884766" xlink:href="#WenQuanYiMicroHei-30"/>
       <use x="136.962891" xlink:href="#WenQuanYiMicroHei-37"/>
       <use x="192.041016" xlink:href="#WenQuanYiMicroHei-35"/>
      </g>
     </g>
    </g>
    <g id="ytick_5">
     <g id="line2d_23">
      <path clip-path="url(#pd189f1eb48)" d="M 72 143.280189 
L 518.4 143.280189 
" style="fill:none;stroke:#b0b0b0;stroke-linecap:square;stroke-width:0.8;"/>
     </g>
     <g id="line2d_24">
      <g>
       <use style="stroke:#000000;stroke-width:0.8;" x="72" xlink:href="#me66648e06e" y="143.280189"/>
      </g>
     </g>
     <g id="text_13">
      <!-- 0.100 -->
      <g transform="translate(40.2875 147.079408)scale(0.1 -0.1)">
       <use xlink:href="#WenQuanYiMicroHei-30"/>
       <use x="55.078125" xlink:href="#WenQuanYiMicroHei-2e"/>
       <use x="81.884766" xlink:href="#WenQuanYiMicroHei-31"/>
       <use x="136.962891" xlink:href="#WenQuanYiMicroHei-30"/>
       <use x="192.041016" xlink:href="#WenQuanYiMicroHei-30"/>
      </g>
     </g>
    </g>
    <g id="ytick_6">
     <g id="line2d_25">
      <path clip-path="url(#pd189f1eb48)" d="M 72 118.571051 
L 518.4 118.571051 
" style="fill:none;stroke:#b0b0b0;stroke-linecap:square;stroke-width:0.8;"/>
     </g>
     <g id="line2d_26">
      <g>
       <use style="stroke:#000000;stroke-width:0.8;" x="72" xlink:href="#me66648e06e" y="118.571051"/>
      </g>
     </g>
     <g id="text_14">
      <!-- 0.125 -->
      <g transform="translate(40.2875 122.37027)scale(0.1 -0.1)">
       <use xlink:href="#WenQuanYiMicroHei-30"/>
       <use x="55.078125" xlink:href="#WenQuanYiMicroHei-2e"/>
       <use x="81.884766" xlink:href="#WenQuanYiMicroHei-31"/>
       <use x="136.962891" xlink:href="#WenQuanYiMicroHei-32"/>
       <use x="192.041016" xlink:href="#WenQuanYiMicroHei-35"/>
      </g>
     </g>
    </g>
    <g id="ytick_7">
     <g id="line2d_27">
      <path clip-path="url(#pd189f1eb48)" d="M 72 93.861913 
L 518.4 93.861913 
" style="fill:none;stroke:#b0b0b0;stroke-linecap:square;stroke-width:0.8;"/>
     </g>
     <g id="line2d_28">
      <g>
       <use style="stroke:#000000;stroke-width:0.8;" x="72" xlink:href="#me66648e06e" y="93.861913"/>
      </g>
     </g>
     <g id="text_15">
      <!-- 0.150 -->
      <g transform="translate(40.2875 97.661132)scale(0.1 -0.1)">
       <use xlink:href="#WenQuanYiMicroHei-30"/>
       <use x="55.078125" xlink:href="#WenQuanYiMicroHei-2e"/>
       <use x="81.884766" xlink:href="#WenQuanYiMicroHei-31"/>
       <use x="136.962891" xlink:href="#WenQuanYiMicroHei-35"/>
       <use x="192.041016" xlink:href="#WenQuanYiMicroHei-30"/>
      </g>
     </g>
    </g>
    <g id="ytick_8">
     <g id="line2d_29">
      <path clip-path="url(#pd189f1eb48)" d="M 72 69.152775 
L 518.4 69.152775 
" style="fill:none;stroke:#b0b0b0;stroke-linecap:square;stroke-width:0.8;"/>
     </g>
     <g id="line2d_30">
      <g>
       <use style="stroke:#000000;stroke-width:0.8;" x="72" xlink:href="#me66648e06e" y="69.152775"/>
      </g>
     </g>
     <g id="text_16">
      <!-- 0.175 -->
      <g transform="translate(40.2875 72.951993)scale(0.1 -0.1)">
       <use xlink:href="#WenQuanYiMicroHei-30"/>
       <use x="55.078125" xlink:href="#WenQuanYiMicroHei-2e"/>
       <use x="81.884766" xlink:href="#WenQuanYiMicroHei-31"/>
       <use x="136.962891" xlink:href="#WenQuanYiMicroHei-37"/>
       <use x="192.041016" xlink:href="#WenQuanYiMicroHei-35"/>
      </g>
     </g>
    </g>
    <g id="ytick_9">
     <g id="line2d_31">
      <path clip-path="url(#pd189f1eb48)" d="M 72 44.443636 
L 518.4 44.443636 
" style="fill:none;stroke:#b0b0b0;stroke-linecap:square;stroke-width:0.8;"/>
     </g>
     <g id="line2d_32">
      <g>
       <use style="stroke:#000000;stroke-width:0.8;" x="72" xlink:href="#me66648e06e" y="44.443636"/>
      </g>
     </g>
     <g id="text_17">
      <!-- 0.200 -->
      <g transform="translate(40.2875 48.242855)scale(0.1 -0.1)">
       <use xlink:href="#WenQuanYiMicroHei-30"/>
       <use x="55.078125" xlink:href="#WenQuanYiMicroHei-2e"/>
       <use x="81.884766" xlink:href="#WenQuanYiMicroHei-32"/>
       <use x="136.962891" xlink:href="#WenQuanYiMicroHei-30"/>
       <use x="192.041016" xlink:href="#WenQuanYiMicroHei-30"/>
      </g>
     </g>
    </g>
    <g id="text_18">
     <!-- 概率 -->
     <g transform="translate(33.884375 153.28)rotate(-90)scale(0.1 -0.1)">
      <defs>
       <path d="M 350 4000 
L 1050 4000 
L 1050 5175 
L 1500 5175 
L 1500 4000 
L 1950 4000 
L 1950 3550 
L 1500 3550 
L 1500 3200 
Q 1825 2800 2075 2450 
L 1750 2000 
L 1500 2525 
L 1500 -575 
L 1050 -575 
L 1050 2375 
Q 850 1600 575 1075 
L 225 1425 
Q 775 2400 950 3550 
L 350 3550 
L 350 4000 
z
M 3725 4975 
L 3725 1950 
L 2625 1950 
L 2625 550 
Q 2950 750 3225 975 
L 2975 1425 
L 3375 1600 
Q 3725 1050 3950 425 
L 3525 225 
L 3425 550 
Q 2950 175 2375 -150 
L 2125 100 
L 2125 4975 
L 3725 4975 
z
M 2625 4525 
L 2625 3700 
L 3225 3700 
L 3225 4525 
L 2625 4525 
z
M 3225 3250 
L 2625 3250 
L 2625 2400 
L 3225 2400 
L 3225 3250 
z
M 4050 4975 
L 5950 4975 
L 5950 4525 
L 5375 4525 
Q 5325 3475 5250 2725 
L 6000 2725 
L 6000 2300 
L 5200 2300 
L 5100 1750 
L 5375 1750 
L 5375 75 
Q 5375 -100 5500 -100 
Q 5625 -100 5662 -12 
Q 5700 75 5725 575 
L 6125 425 
Q 6075 -225 5950 -375 
Q 5825 -525 5500 -525 
Q 5150 -525 5025 -412 
Q 4900 -300 4900 0 
L 4900 1025 
Q 4550 100 3875 -575 
L 3475 -225 
Q 4525 750 4700 2300 
L 3975 2300 
L 3850 2725 
Q 4075 3200 4200 3950 
L 4625 3850 
Q 4525 3175 4350 2725 
L 4775 2725 
Q 4850 3475 4900 4525 
L 4050 4525 
L 4050 4975 
z
" id="WenQuanYiMicroHei-6982" transform="scale(0.015625)"/>
       <path d="M 3275 5200 
Q 3475 4900 3575 4550 
L 6050 4550 
L 6050 4075 
L 350 4075 
L 350 4550 
L 2950 4550 
Q 2875 4825 2750 5025 
L 3275 5200 
z
M 2975 1625 
L 3450 1625 
L 3450 1100 
L 6000 1100 
L 6000 650 
L 3450 650 
L 3450 -575 
L 2975 -575 
L 2975 650 
L 400 650 
L 400 1100 
L 2975 1100 
L 2975 1625 
z
M 2925 4450 
L 3375 4325 
Q 3000 3550 2700 3200 
Q 3050 3200 3475 3275 
Q 3700 3525 3900 3800 
L 4350 3650 
Q 3625 2675 2725 2025 
Q 3350 2125 3875 2250 
Q 3775 2400 3650 2550 
L 4050 2750 
Q 4475 2250 4775 1625 
L 4325 1425 
Q 4225 1675 4100 1900 
Q 3150 1675 2050 1525 
L 1925 1925 
Q 2525 2300 3075 2850 
Q 2650 2775 2175 2725 
L 2100 3150 
Q 2625 3775 2925 4450 
z
M 1100 3975 
Q 1500 3625 1775 3200 
L 1325 2950 
Q 1075 3350 650 3700 
L 1100 3975 
z
M 5325 3975 
L 5750 3725 
Q 5325 3175 4900 2850 
L 4525 3200 
Q 5025 3575 5325 3975 
z
M 1625 2725 
L 2000 2450 
Q 1550 1900 875 1425 
L 500 1800 
Q 1200 2275 1625 2725 
z
M 4925 2650 
Q 5450 2350 5900 1925 
L 5525 1475 
Q 5100 1975 4600 2300 
L 4925 2650 
z
" id="WenQuanYiMicroHei-7387" transform="scale(0.015625)"/>
      </defs>
      <use xlink:href="#WenQuanYiMicroHei-6982"/>
      <use x="100" xlink:href="#WenQuanYiMicroHei-7387"/>
     </g>
    </g>
   </g>
   <g id="line2d_33">
    <path clip-path="url(#pd189f1eb48)" d="M 92.290909 44.443636 
L 99.169183 83.978258 
L 106.047458 115.605955 
L 112.925732 140.908112 
L 119.804006 161.149838 
L 126.68228 177.343219 
L 133.560555 190.297924 
L 140.438829 200.661687 
L 147.317103 208.952698 
L 154.195378 215.585507 
L 161.073652 220.891754 
L 167.951926 225.136752 
L 174.8302 228.53275 
L 181.708475 231.249548 
L 188.586749 233.422987 
L 195.465023 235.161738 
L 202.343297 236.552739 
L 209.221572 237.66554 
L 216.099846 238.55578 
L 222.97812 239.267973 
L 229.856394 239.837727 
L 236.734669 240.29353 
L 243.612943 240.658172 
L 250.491217 240.949886 
L 257.369492 241.183257 
L 264.247766 241.369954 
L 271.12604 241.519312 
L 278.004314 241.638798 
L 284.882589 241.734387 
L 291.760863 241.810858 
L 298.639137 241.872035 
L 305.517411 241.920976 
L 312.395686 241.96013 
L 319.27396 241.991452 
L 326.152234 242.01651 
L 333.030508 242.036557 
L 339.908783 242.052594 
L 346.787057 242.065423 
L 353.665331 242.075687 
L 360.543606 242.083898 
L 367.42188 242.090467 
L 374.300154 242.095722 
L 381.178428 242.099926 
L 388.056703 242.103289 
L 394.934977 242.10598 
L 401.813251 242.108132 
L 408.691525 242.109854 
L 415.5698 242.111232 
L 422.448074 242.112334 
L 429.326348 242.113216 
L 436.204622 242.113921 
L 443.082897 242.114485 
L 449.961171 242.114937 
L 456.839445 242.115298 
L 463.71772 242.115587 
L 470.595994 242.115818 
L 477.474268 242.116003 
L 484.352542 242.116151 
L 491.230817 242.116269 
L 498.109091 242.116364 
" style="fill:none;stroke:#1f77b4;stroke-linecap:square;stroke-width:1.5;"/>
   </g>
   <g id="patch_3">
    <path d="M 72 252 
L 72 34.56 
" style="fill:none;stroke:#000000;stroke-linecap:square;stroke-linejoin:miter;stroke-width:0.8;"/>
   </g>
   <g id="patch_4">
    <path d="M 518.4 252 
L 518.4 34.56 
" style="fill:none;stroke:#000000;stroke-linecap:square;stroke-linejoin:miter;stroke-width:0.8;"/>
   </g>
   <g id="patch_5">
    <path d="M 72 252 
L 518.4 252 
" style="fill:none;stroke:#000000;stroke-linecap:square;stroke-linejoin:miter;stroke-width:0.8;"/>
   </g>
   <g id="patch_6">
    <path d="M 72 34.56 
L 518.4 34.56 
" style="fill:none;stroke:#000000;stroke-linecap:square;stroke-linejoin:miter;stroke-width:0.8;"/>
   </g>
  </g>
 </g>
 <defs>
  <clipPath id="pd189f1eb48">
   <rect height="217.44" width="446.4" x="72" y="34.56"/>
  </clipPath>
 </defs>
</svg>
