<?xml version="1.0" standalone="no"?>
<!DOCTYPE svg PUBLIC "-//W3C//DTD SVG 20010904//EN"
 "http://www.w3.org/TR/2001/REC-SVG-20010904/DTD/svg10.dtd">
<svg version="1.0" xmlns="http://www.w3.org/2000/svg"
 width="700.000000pt" height="700.000000pt" viewBox="0 0 700.000000 700.000000"
 preserveAspectRatio="xMidYMid meet">
<metadata>
Created by potrace 1.14, written by Peter Selinger 2001-2017
</metadata>
<g transform="translate(0.000000,700.000000) scale(0.100000,-0.100000)"
fill="#000000" stroke="none">
<path d="M3309 6706 c-2 -2 -43 -6 -90 -10 -47 -4 -95 -8 -105 -10 -10 -2 -46
-7 -79 -12 -33 -4 -62 -8 -65 -9 -3 0 -27 -5 -55 -10 -27 -4 -54 -10 -60 -11
-5 -2 -23 -6 -40 -9 -139 -28 -401 -109 -520 -160 -16 -7 -55 -24 -85 -36 -87
-38 -300 -147 -347 -180 -24 -16 -46 -29 -49 -29 -15 0 -302 -207 -369 -265
-16 -14 -46 -40 -65 -57 -392 -341 -714 -812 -895 -1308 -29 -80 -82 -249 -90
-284 -2 -12 -6 -31 -9 -43 -4 -13 -8 -31 -10 -40 -12 -48 -35 -162 -40 -198
-8 -53 -18 -116 -22 -137 -18 -99 -25 -523 -11 -676 54 -592 268 -1159 612
-1622 41 -54 82 -109 93 -122 11 -12 39 -45 62 -73 55 -64 149 -163 236 -245
295 -279 657 -506 1048 -657 176 -68 476 -150 621 -169 28 -3 59 -8 70 -10 11
-2 43 -7 70 -10 28 -3 66 -8 85 -10 82 -12 472 -11 590 1 188 20 215 24 350
51 629 127 1206 442 1655 906 66 68 138 145 160 172 22 27 45 54 50 60 18 20
121 160 162 221 96 144 218 367 275 505 8 19 25 58 36 85 52 121 143 422 165
545 3 14 8 43 12 65 12 62 12 65 24 145 6 41 13 98 16 125 10 85 13 486 5 560
-4 39 -11 99 -14 135 -11 108 -37 248 -72 390 -280 1141 -1174 2045 -2309
2336 -146 38 -314 69 -428 80 -34 3 -73 8 -87 10 -28 6 -476 15 -481 10z"/>
</g>
</svg>
